<?xml version="1.0" encoding="UTF-8"?>
<svg id="_Слой_1" data-name="Слой 1" xmlns="http://www.w3.org/2000/svg" viewBox="0 0 287.26 103.43">
  <path d="M40.8,11.46c.6,5.73,3.01,11.04,3.87,16.72s.45,11.97,.04,17.91c-.13,1.93,2.87,1.92,3,0,.4-5.91,.77-11.86-.02-17.75s-3.29-11.12-3.89-16.88c-.2-1.9-3.2-1.92-3,0h0Z"/>
  <path d="M44.16,13.34c4.29,.34,8.58,.56,12.88,.64,2.15,.04,4.3,.05,6.45,.02,.99-.01,1.98-.03,2.98-.06,.41-.01,1.09,.1,1.49-.05,.43,.06,.46,0,.1-.19,.03,.1,.05,.2,.06,.3-.15,.88,.18,2.17,.25,3.06,.07,.99,.14,1.97,.21,2.96,.14,2.14,.27,4.28,.37,6.42,.21,4.28,.34,8.57,.39,12.86,.03,1.93,3.03,1.93,3,0-.06-4.78-.22-9.56-.47-14.34-.12-2.31-.27-4.61-.43-6.91-.08-1.15-.17-2.3-.27-3.45-.07-.81-.1-1.69-.53-2.41-1.04-1.79-3.44-1.27-5.17-1.23-2.31,.05-4.63,.06-6.94,.04-4.8-.05-9.59-.28-14.37-.66-1.92-.15-1.91,2.85,0,3h0Z"/>
  <path d="M84.96,15.51c2,5.59,3.36,11.42,3.91,17.34,.51,5.48,.11,11.1,2.42,16.24,.61,1.36,2.88,.67,2.8-.76-.59-10.2,.68-20.44,3.8-30.18,.8-2.48,1.7-4.93,2.74-7.32,.32-.74,.71-2.23,1.43-2.71,.89-.59,1.98,.7,2.45,1.34,2.68,3.64,3.53,8.8,2.57,13.16-.24,1.11-.51,2.68-1.61,3.26s-2.74,.55-3.98,.67c-3.04,.31-6.09,.48-9.14,.52-1.93,.03-1.93,3.03,0,3,3.29-.05,6.58-.24,9.86-.6,2.79-.31,5.57-.54,6.92-3.39,2.28-4.84,1.54-11.14-.69-15.84-1.08-2.27-2.87-5.06-5.65-5.27-3.04-.23-4.14,2.89-5.1,5.17-2.36,5.58-4.13,11.4-5.25,17.35-1.29,6.86-1.75,13.85-1.34,20.82l2.8-.76c-2.23-4.97-1.56-10.83-2.15-16.12-.64-5.72-1.93-11.33-3.87-16.74-.65-1.8-3.55-1.03-2.89,.8h0Z"/>
  <path d="M124.22,13.95l-.27,15.85-.14,7.93c-.04,2.15-.1,4.32,.3,6.44,.35,1.89,1.21,4.2,2.95,5.24s3.73,.26,4.99-1.16c1.41-1.59,2.27-3.72,3.07-5.66,.86-2.09,1.56-4.24,2.2-6.41,1.46-4.89,2.67-9.88,5.06-14.42l-2.8-.76c-.1,3.16-.2,6.32-.29,9.48-.09,2.97-.39,6.02-.23,9,.11,2.01,.98,4.99,3.48,4.98,1.23,0,2.54-.83,3.59-1.39,1.32-.71,2.57-1.54,3.76-2.45,.65-.5,.97-1.29,.54-2.05-.36-.64-1.41-1.03-2.05-.54-.95,.73-1.94,1.41-2.98,2.01-.39,.23-2.32,1.54-2.77,1.39-1.06-.37-.53-4.61-.51-5.45,.15-4.99,.31-9.98,.46-14.96,.05-1.47-2.1-2.07-2.8-.76-3.7,7-4.63,14.97-7.84,22.15-.4,.9-.84,1.79-1.32,2.64-.33,.59-.89,1.68-1.62,1.82-1.44,.27-2.03-3.33-2.13-4.28-.22-2.01-.09-4.07-.06-6.09l.12-6.94,.27-15.6c.03-1.93-2.97-1.93-3,0h0Z"/>
  <path d="M169,18.24c.31,9.78-5.7,18.41-6.43,28.08-.13,1.79,2.4,1.89,2.95,.4,2.71-7.38,3.26-15.28,5.34-22.83,1.72-6.23,4.68-12.57,10.27-16.21l-1.82-.23c3.66,4.1,5.93,10.19,2.93,15.32-2.83,4.84-9.06,5.08-14.04,5.21-1.07,.03-1.96,1.28-1.3,2.26,1.98,2.92,4.66,6.7,3.49,10.43-.92,2.94-3.97,4.74-6.96,4.43-1.92-.2-1.91,2.81,0,3,4.09,.42,8.12-2.21,9.62-6,1.89-4.75-.97-9.56-3.56-13.38l-1.3,2.26c6.24-.16,13.51-.89,16.82-7.03,3.41-6.33,.91-13.58-3.59-18.62-.42-.47-1.29-.58-1.82-.23-13.7,8.92-11.99,27.2-16.98,40.83l2.95,.4c.73-9.68,6.74-18.21,6.43-28.08-.06-1.93-3.06-1.93-3,0h0Z"/>
  <path d="M193.39,30.67c3.65,.93,7.16-.58,10.2-2.52s5.8-4.22,8.24-6.81c2.31-2.45,4.71-5.27,6.02-8.41,1.15-2.74,1.23-6.31-1.66-8s-6.57-.12-8.65,2.27c-2.48,2.85-4.38,6.37-6.07,9.73-3.25,6.44-6.58,14.42-2.98,21.41s12.33,7.03,19.17,6.31c1.9-.2,1.92-3.2,0-3-4.71,.49-10.78,1.15-14.63-2.27-4.77-4.24-3.12-11.37-1.02-16.49,1.23-2.99,2.71-5.88,4.36-8.66,1.35-2.27,2.97-5.65,5.55-6.73,1.01-.43,2.45-.49,3.22,.42s.49,2.31,.13,3.35c-.86,2.55-2.85,4.88-4.61,6.87-2.14,2.44-4.57,4.64-7.23,6.5s-5.91,3.99-9.26,3.14c-1.87-.48-2.67,2.42-.8,2.89h0Z"/>
  <path d="M243.42,13.24c-.12,10.36-.24,20.71-.37,31.07-.02,1.93,2.98,1.93,3,0,.12-10.36,.24-20.71,.37-31.07,.02-1.93-2.98-1.93-3,0h0Z"/>
  <path d="M231.93,11.55c9.54,2.16,19.39,2.33,29.01,.52,1.9-.36,1.09-3.25-.8-2.89-9.07,1.7-18.42,1.51-27.41-.52-1.88-.43-2.68,2.47-.8,2.89h0Z"/>
  <path d="M284.25,1.43c-.82,7.44-1.98,14.83-3.46,22.17-.38,1.89,2.51,2.69,2.89,.8,1.53-7.6,2.72-15.26,3.57-22.97,.21-1.92-2.79-1.9-3,0h0Z"/>
  <path d="M279.45,49.93c-.12-.08-.24-.16-.36-.24-.14-.09,.04,.03,.06,.05-.06-.05-.13-.1-.19-.16-.22-.19-.42-.39-.61-.61-.05-.06-.11-.13-.16-.19,.01,.02,.14,.2,.05,.06-.08-.12-.17-.24-.24-.36-.07-.11-.13-.21-.19-.33-.04-.08-.08-.15-.12-.23-.06-.13-.05-.13,0,0-.1-.29-.19-.57-.25-.87s0,.18-.02-.11c0-.17-.02-.34,0-.51,0-.06,.01-.13,.01-.19,0-.22-.06,.23,0,.02,.04-.14,.07-.29,.11-.43,.08-.27-.08,.12,.04-.1,.01-.02,.23-.37,.23-.37,.01,.01-.19,.21-.07,.09,.05-.05,.1-.11,.15-.16,.04-.04,.28-.28,.13-.14s.14-.09,.21-.13,.13-.07,.19-.1c.21-.12-.03,.05-.06,.02,.02,.01,.33-.1,.36-.11,.04,0,.12,0,.16-.03-.02,.01-.3,.02-.14,.03,.08,0,.29,.03,.37,0-.05,.02-.34-.08-.09,0,.02,0,.2,.07,.21,.06-.02,.01-.25-.14-.12-.05,.06,.04,.12,.07,.18,.1,.01,0,.13,.07,.13,.08,0,.02-.22-.21-.1-.08,.08,.08,.17,.17,.26,.25,.11,.11,.02,.13-.04-.06,.01,.05,.09,.12,.12,.17,.07,.1,.13,.21,.18,.32,0,.02,.06,.14,.07,.14,0,0-.1-.27-.05-.11,.09,.26,.18,.51,.24,.78,.01,.06,.09,.46,.05,.23-.04-.22,0,.12,.01,.18,.02,.25,.02,.51,0,.76,0,.05-.01,.1-.01,.15,0,.21,.06-.3,.01-.09-.02,.1-.03,.2-.06,.3-.02,.11-.12,.69-.22,.73-.02,0,.14-.28,.05-.13-.03,.06-.06,.12-.09,.18-.05,.09-.1,.17-.15,.25-.18,.31,.15-.14-.02,.04-.03,.04-.27,.25-.26,.26,0-.02,.26-.16,.12-.09-.04,.02-.08,.05-.11,.08-.05,.03-.11,.06-.16,.09-.1,.06-.06,.08,0,0,.09-.12,.09-.03-.04,0,0,0-.14,.04-.14,.03,0-.02,.32-.01,.13-.02-.04,0-.25,.04-.28,0,0,0,.3,.07,.12,.02-.05-.02-.11-.02-.16-.04-.03,0-.19-.04-.21-.07,0,0,.25,.13,.1,.04-.11-.07-.23-.13-.35-.2-.03-.02-.17-.14-.03-.02,.16,.14-.08-.08-.11-.11-.08-.08-.16-.17-.24-.26,.23,.25-.02-.04-.07-.13-.08-.13-.15-.27-.22-.41,.01,.02,.07,.21,.02,.05-.03-.11-.08-.21-.11-.31-.09-.28-.15-.56-.21-.85-.03-.15-.05-.31-.08-.47,0-.02-.03-.24-.01-.07,.03,.2-.02-.16-.02-.2-.02-.2-.02-.4-.01-.6,0-.34-.06,.23,0-.03,.03-.12,.05-.24,.09-.37,.01-.04,.03-.09,.04-.13,.03-.15-.18,.31-.03,.08,.02-.03,.05-.08,.06-.11,.04-.14-.19,.21-.09,.11,.05-.05,.18-.16-.01,0-.25,.19,.16-.04-.14,.08-.22,.09-.1,.04-.04,.03-.26,.02-.33,.04-.21,.04,.08,0,.05,0-.08-.01-.1-.02-.16-.05-.25-.08,.12,.08,.14,.08,.05,.02-.07-.06-.08-.05-.01,0,.03,.05,.09,.09,.13,.13,.19,.2-.06-.11,.03,.03,.16,.26,.32,.51,.46,.78,.13,.25,.01,.02,0-.03,.03,.08,.06,.15,.09,.23,.05,.15,.1,.31,.14,.46s.07,.31,.1,.47c0,.04,.02,.23,0,.04-.02-.23,0,.15,0,.16,.02,.3,0,.6-.02,.9-.01,.22,.06-.26,0-.04-.02,.08-.03,.16-.05,.24-.04,.18-.09,.35-.15,.52l1.45-1.1c-.06,0-.12,0-.18,0,.24,.04,.3,.04,.18,.02-.12-.03,.3,.2,.04,.01-.1-.06-.05-.03,.12,.1-.05-.04-.09-.08-.13-.12-.2-.18,.16,.27,.02,.01s.07,.32,0,.03c-.08-.34,.03,0-.01,.05,0-.06,0-.12,0-.18l-.03,.23c.04-.15,.02-.12-.07,.11,.03-.05,.06-.11,.09-.16l-2.05,.54c-.37-.25,.07,0,.04,.05,.03-.03-.21-.23,0,.01,.13,.16-.15-.32,0,0l.03,.11c-.02-.22-.03-.24-.02-.07,.03,.78,.67,1.54,1.5,1.5s1.53-.66,1.5-1.5c-.04-1.13-.59-2.07-1.52-2.7-.69-.47-1.63-.11-2.05,.54-1.18,1.82,.37,4.53,2.54,4.41,.69-.04,1.23-.44,1.45-1.1,.54-1.67,.37-3.46-.33-5.05-.36-.82-.9-1.6-1.62-2.13-.78-.57-1.85-.59-2.65-.07-.68,.44-1.1,1.23-1.27,2.01-.18,.85-.11,1.6,.01,2.45,.25,1.77,.95,3.51,2.53,4.5s3.51,.75,4.73-.56c1.01-1.09,1.47-2.66,1.43-4.13s-.53-3.22-1.7-4.25c-1.36-1.2-3.31-1.36-4.85-.38-1.83,1.17-2.46,3.28-2.06,5.35,.38,1.95,1.75,3.62,3.39,4.67,.66,.43,1.68,.16,2.05-.54,.39-.74,.17-1.6-.54-2.05h0Z"/>
  <path d="M3.01,96.83c1.89-4.63,3.09-9.48,3.62-14.45,.26-2.41,.34-4.84,.25-7.26-.08-2.22-.68-4.81,.64-6.77h-2.59c2.76,4.43,4.85,9.22,6.16,14.28,.62,2.41,.97,4.85,1.38,7.3,.38,2.31,1.06,4.49,2.67,6.25,1.31,1.42,3.43-.7,2.12-2.12-1.51-1.63-1.77-3.98-2.08-6.09-.37-2.5-.85-4.97-1.55-7.4-1.38-4.83-3.46-9.46-6.11-13.73-.62-.99-1.96-.94-2.59,0-1.31,1.95-1.29,4.27-1.15,6.52,.16,2.56,.17,5.11-.03,7.66-.41,5.16-1.68,10.22-3.64,15.01-.73,1.79,2.17,2.56,2.89,.8h0Z"/>
  <path d="M29.8,65.04c-1.31,8.73-2.54,17.53-1.11,26.33,.15,.91,1.47,1.42,2.2,.9,3.2-2.27,5.63-5.37,6.96-9.07,1.54-4.3,1.04-8.96,2.04-13.36l-1.85,1.05c.66,.15,.61,1.74,.64,2.26,.11,1.53,.16,3.07,.15,4.61-.02,3.03-.3,6.04-.81,9.03-.33,1.89,2.56,2.7,2.89,.8,.67-3.89,1.01-7.82,.9-11.77-.07-2.49,.24-7.09-2.98-7.82-.76-.17-1.66,.23-1.85,1.05-.92,4.03-.57,8.27-1.69,12.25-.95,3.37-3.07,6.36-5.93,8.39l2.2,.9c-1.34-8.22-.11-16.58,1.11-24.73,.28-1.89-2.61-2.7-2.89-.8h0Z"/>
  <path d="M64.92,72.65c1.89-.5,3.93,.62,4.5,2.5l2.51-1.46c-2.51-2.35-6.51-5.55-10.14-3.85-3.14,1.47-4.71,5.92-5.71,8.98-1.14,3.51-1.83,7.54-1.25,11.22s3.36,6.01,6.82,7.26c4.32,1.55,9.06,1.33,13.56,1.04,1.92-.12,1.93-3.12,0-3-3.97,.25-8.08,.5-11.93-.66-1.73-.52-3.68-1.34-4.71-2.92-.96-1.47-.97-3.37-.9-5.06,.17-3.94,1.25-7.85,3.12-11.33,.81-1.51,1.81-3.33,3.8-2.92s3.81,2.05,5.23,3.37c1.06,.99,2.96,.03,2.51-1.46-1.04-3.45-4.7-5.52-8.19-4.59-1.87,.49-1.07,3.39,.8,2.89h0Z"/>
  <path d="M84.59,70.39c2.25,8.39,3.22,17.02,2.92,25.7-.07,1.93,2.93,1.93,3,0,.31-8.93-.72-17.87-3.03-26.5-.5-1.86-3.39-1.07-2.89,.8h0Z"/>
  <path d="M77.4,74.03c8.65-1.22,17.23-2.93,25.69-5.11,1.87-.48,1.08-3.38-.8-2.89-8.46,2.18-17.04,3.89-25.69,5.11-1.9,.27-1.09,3.16,.8,2.89h0Z"/>
  <path d="M105.65,96.16c3.02-8.91,6.68-17.58,10.95-25.96l-2.74-.36c1.68,4.44,2.12,9.17,3.14,13.78,.51,2.28,1.3,4.44,2.01,6.65s1.28,4.52,.44,6.83c-.67,1.81,2.23,2.6,2.89,.8,1.76-4.79-1.13-9.61-2.24-14.2-1.18-4.88-1.56-9.93-3.35-14.66-.42-1.11-2.11-1.61-2.74-.36-4.38,8.61-8.15,17.53-11.25,26.67-.62,1.83,2.27,2.62,2.89,.8h0Z"/>
  <path d="M107.35,85.43c4.29,.18,8.58,.07,12.86-.31,.81-.07,1.5-.64,1.5-1.5,0-.75-.69-1.57-1.5-1.5-4.28,.39-8.57,.49-12.86,.31-.81-.03-1.5,.71-1.5,1.5,0,.84,.69,1.47,1.5,1.5h0Z"/>
  <path d="M127.63,71.58c-1.16,3.01-1.86,6.15-2.13,9.36-.25,2.99-.24,6.34,.55,9.26,.34,1.27,1.2,2.49,2.63,2.57s2.84-1.12,3.91-1.98c2.05-1.64,3.74-3.79,4.9-6.15,1.36-2.76,2.08-5.8,1.98-8.89l-2.95,.4c1.74,4.31,3.47,8.62,5.21,12.93,.3,.75,1,1.28,1.85,1.05,.71-.2,1.35-1.09,1.05-1.85-1.74-4.31-3.47-8.62-5.21-12.93-.59-1.46-3-1.43-2.95,.4,.16,5.37-2.53,10.8-7.12,13.69-.17,.11-.35,.22-.53,.31,.29,.2,.39,.25,.29,.13,0,0-.2-.55-.22-.6-.18-.73-.27-1.5-.35-2.25-.17-1.62-.22-3.25-.14-4.87,.15-3.36,.9-6.65,2.1-9.78,.29-.76-.32-1.65-1.05-1.85-.85-.23-1.55,.29-1.85,1.05h0Z"/>
  <path d="M128.7,64.64c1.1,2.31,3.27,4.11,5.73,4.79,2.64,.73,5.65,.17,7.82-1.5,.64-.49,.98-1.29,.54-2.05-.37-.63-1.41-1.03-2.05-.54-1.63,1.25-3.6,1.73-5.51,1.2-1.75-.49-3.13-1.72-3.94-3.41-.35-.73-1.4-.92-2.05-.54-.75,.44-.89,1.32-.54,2.05h0Z"/>
  <path d="M184.72,87.34c4.74-5.95,6.33-14.14,3.93-21.4-.49-1.46-1.13-3.78-2.59-4.56-1.77-.95-3.44,.49-4.26,1.98-2.08,3.75-3.39,8.08-4.12,12.29s-.87,8.65-.31,12.97c.51,3.99,1.45,8.18,3.85,11.49,1.07,1.48,2.56,3.28,4.56,3.33s3.57-1.52,4.65-2.92c2.28-2.97,2.92-7,2.25-10.62s-3.28-7.51-7.23-8.24c-3.61-.66-7.35,.91-8.73,4.43-.7,1.8,2.2,2.58,2.89,.8,.79-2.01,3.4-2.7,5.34-2.27,2.49,.55,4.03,2.88,4.64,5.21,.68,2.6,.41,5.58-.92,7.94-.46,.81-1.74,2.75-2.86,2.67-.56-.04-1.14-.83-1.48-1.22-.62-.7-1.12-1.49-1.56-2.31-2.93-5.48-3.17-12.68-2.44-18.71,.39-3.17,1.18-6.31,2.29-9.31,.53-1.42,1.08-3.05,1.94-4.31l.18-.26c.36-.24,.32-.33-.12-.26,.16,.31,.33,.62,.47,.94,.31,.68,.57,1.38,.8,2.1,1.89,6.09,.73,13.11-3.27,18.12-1.19,1.49,.92,3.63,2.12,2.12h0Z"/>
  <path d="M201.19,67.68c3.87,7.67,5.35,16.32,4.37,24.85-.22,1.92,2.78,1.9,3,0,1.03-9.05-.68-18.24-4.78-26.37-.87-1.72-3.46-.21-2.59,1.51h0Z"/>
  <path d="M207.65,77.61c2.15,.47,4.32,.8,6.51,.97,1.96,.16,4.28,.44,6.21-.02,2.16-.52,2.46-2.35,2.66-4.26,.23-2.19,.47-4.37,.7-6.56h-3c.93,7.04,.95,14.15,.06,21.2-.1,.81,.76,1.49,1.5,1.5,.89,0,1.4-.7,1.5-1.5,.89-7.04,.87-14.16-.06-21.2-.25-1.9-2.79-1.95-3,0-.18,1.71-.36,3.42-.55,5.12-.07,.65,.03,1.91-.28,2.5-.17,.33,.13,.15-.33,.31-.24,.09-.64,.04-.88,.04-3.45,.08-6.88-.26-10.25-1-1.88-.41-2.69,2.48-.8,2.89h0Z"/>
  <path d="M233.22,68.3c.67,4.72,.93,9.5,.79,14.27-.07,2.29-.34,4.56-.48,6.85-.11,1.76,1.08,3.33,3,2.82,1.68-.45,3.01-2.19,4-3.52,1.12-1.5,1.99-3.16,2.72-4.88,1.72-4.05,2.6-8.4,4.31-12.45h-2.89c.65,4.31,.93,8.66,.86,13.02-.07,3.79-.38,7.62,1.46,11.09,.91,1.71,3.5,.19,2.59-1.51-1.76-3.33-1.04-7.43-1.04-11.04,0-4.14-.36-8.26-.98-12.35-.25-1.66-2.4-1.16-2.89,0-1.45,3.44-2.29,7.09-3.57,10.6-.55,1.51-1.21,2.99-2.04,4.37-.41,.69-.86,1.35-1.37,1.97s-1.18,1.07-1.66,1.67l-.29,.16c.58,.59,.85,.61,.8,.07,.2-.28,.12-1.14,.15-1.46,.09-.98,.16-1.95,.22-2.93,.11-1.96,.16-3.92,.14-5.88-.04-3.9-.38-7.78-.93-11.63-.27-1.9-3.16-1.09-2.89,.8h0Z"/>
  <path d="M267.47,68.02c1.57-1.32,3.87-.53,5.25,.66,1.46,1.26,2.74,3.2,3.35,5.03,1.3,3.86-2.45,6.88-5.78,7.83-1.06,.3-1.49,1.72-.66,2.51,2.54,2.4,6.38,6.11,4.51,9.98s-6.93,4.56-10.75,5.1c-1.9,.27-1.09,3.16,.8,2.89,4.96-.7,10.73-1.99,12.85-7.16,2.09-5.09-1.82-9.66-5.29-12.94l-.66,2.51c5.32-1.52,9.95-6.6,7.56-12.32-1.08-2.57-2.9-5.25-5.35-6.69s-5.67-1.42-7.95,.48c-1.48,1.24,.65,3.35,2.12,2.12h0Z"/>
</svg>